<svg width="207" height="189" viewBox="0 0 207 189" fill="none" xmlns="http://www.w3.org/2000/svg">
<path d="M40.9025 124.758C36.5811 124.324 32.746 123.732 29.5756 122.96C0.125635 115.786 16.4985 95.0428 14.5078 89.2311C12.5172 83.4193 15.6084 59.613 18.1228 49.2094C31.7014 58.2846 39.8339 61.8396 55.8792 63.6826C55.8792 63.6826 71.1619 58.0174 80.0431 56.6348C89.4781 55.1659 104.494 56.6348 104.494 56.6348C116.906 45.2651 121.435 37.0035 129.035 21.8989C145.473 40.824 152.102 51.8528 157.227 72.6183C169.148 89.2311 161.037 114.402 137.216 119.436C135.96 119.702 134.602 119.965 133.154 120.225M40.9025 124.758C36.7073 130.997 29.3742 144.481 33.6029 148.509C38.8888 153.543 60.7875 144.985 61.0392 142.719C61.2909 140.454 56.6344 161.094 68.3388 168.268C80.0431 175.441 80.0431 154.424 87.3428 154.424C92.9316 154.424 94.6423 168.268 100.054 168.268C105.466 168.268 114.066 160.507 116.919 145.74L111.129 142.719C111.129 142.719 133.154 153.039 137.216 148.509C141.278 143.978 133.154 120.225 133.154 120.225M40.9025 124.758C67.0002 127.376 110.836 124.226 133.154 120.225" stroke="#113B3A" stroke-width="2.7688"/>
<ellipse cx="52.5916" cy="100.637" rx="14.0278" ry="23.6112" transform="rotate(44.8068 52.5916 100.637)" fill="#113B3A"/>
<path d="M73.3674 75.6255C76.8004 78.761 77.9279 84.0962 76.6046 90.4926C75.2876 96.8583 71.5727 104.032 65.7154 110.446C59.858 116.86 53.0495 121.209 46.8291 123.097C40.5787 124.993 35.1627 124.354 31.7294 121.219C28.2962 118.083 27.1688 112.747 28.4921 106.35C29.8092 99.9846 33.5248 92.8111 39.3821 86.3974C45.2395 79.9836 52.0473 75.634 58.2677 73.7464C64.5182 71.8496 69.9341 72.4901 73.3674 75.6255Z" stroke="#113B3A" stroke-width="2.51709"/>
<path d="M97.9614 102.752C91.5659 91.1583 91.9649 78.6798 98.8526 74.8801C105.74 71.0805 116.509 77.3985 122.904 88.9918C129.3 100.585 128.901 113.064 122.013 116.863C115.125 120.663 103.435 117.89 97.9614 102.752Z" fill="#113B3A"/>
<path d="M76.9998 104.01C83.2224 110.233 87.135 106.132 88.3136 103.303" stroke="#113B3A" stroke-width="2" stroke-linecap="round"/>
<path d="M124.061 119.939C119.641 122.301 114.498 123.24 109.508 121.795C104.537 120.356 99.5308 116.495 95.4715 108.9C91.3938 101.271 89.1108 91.4353 88.9966 82.9125C88.9395 78.6538 89.4254 74.7869 90.456 71.7215C91.492 68.6401 93.0249 66.516 94.9553 65.4842C99.0632 63.2888 105.557 63.9998 112.278 67.4234C118.929 70.8112 125.475 76.7075 129.527 84.2866C133.57 91.8517 134.357 99.6493 133.036 106.125C131.709 112.634 128.289 117.679 124.061 119.939Z" stroke="#113B3A" stroke-width="2.51709"/>
<path d="M190.596 92.6112C190.334 92.1252 189.728 91.9439 189.242 92.2062C188.755 92.4686 188.574 93.0752 188.837 93.5612L190.596 92.6112ZM190.233 183.221L201.295 179.909L192.896 171.985L190.233 183.221ZM188.837 93.5612C211.584 135.703 204.776 163.162 195.593 176.097L197.223 177.254C206.952 163.551 213.61 135.247 190.596 92.6112L188.837 93.5612Z" fill="#113B3A"/>
<path d="M190.596 92.6112C190.334 92.1252 189.728 91.9439 189.242 92.2062C188.755 92.4686 188.574 93.0752 188.837 93.5612L190.596 92.6112ZM190.233 183.221L201.295 179.909L192.896 171.985L190.233 183.221ZM188.837 93.5612C211.584 135.703 204.776 163.162 195.593 176.097L197.223 177.254C206.952 163.551 213.61 135.247 190.596 92.6112L188.837 93.5612Z" fill="#113B3A"/>
<path d="M12.4622 128.582C12.7245 128.096 13.3312 127.915 13.8172 128.177C14.3032 128.439 14.4845 129.046 14.2222 129.532L12.4622 128.582ZM13.0018 188.468L2.19127 184.41L11.1107 177.077L13.0018 188.468ZM14.2222 129.532C0.633347 154.707 3.1303 171.836 8.16468 181.037L6.41011 181.997C0.974712 172.063 -1.36569 154.2 12.4622 128.582L14.2222 129.532Z" fill="#113B3A"/>
</svg>
